<svg xmlns="http://www.w3.org/2000/svg" width="400" height="400" viewBox="0 0 400 400">
  <rect width="400" height="400" fill="#8D54B4"></rect>

  <!-- fluid leopard spots -->
  <g fill="#512b71" opacity="0.35">
    <path d="M60,40c15,5,25,20,10,30s-25,0-30-10,5-20,20-20z"></path>
    <path d="M200,70c20,0,35,15,25,30s-30,5-35-10,5-20,10-20z"></path>
    <path d="M120,180c25,10,40,25,20,35s-35-5-30-20,10-15,10-15z"></path>
    <path d="M260,220c20,5,30,20,15,30s-25-5-20-20,5-15,5-15z"></path>
    <path d="M80,300c15,0,25,15,10,25s-25-5-20-15,5-10,10-10z"></path>
  </g>
</svg>
