<svg xmlns="http://www.w3.org/2000/svg" width="800" height="800" viewBox="0 0 800 800">
  <!-- Background -->
  <rect width="800" height="800" fill="#c39cdf"></rect>

  <!-- Irregular leopard spots -->
  <path d="M120,80 C130,70 150,75 145,95 C140,110 120,105 120,80 Z" fill="#512b71"></path>
  <path d="M300,200 C310,190 330,195 325,215 C320,230 300,225 300,200 Z" fill="#512b71"></path>
  <path d="M500,150 C510,140 530,145 525,165 C520,180 500,175 500,150 Z" fill="#512b71"></path>
  <path d="M200,500 C210,490 230,495 225,515 C220,530 200,525 200,500 Z" fill="#512b71"></path>
  <path d="M600,400 C610,390 630,395 625,415 C620,430 600,425 600,400 Z" fill="#512b71"></path>
  <path d="M400,600 C410,590 430,595 425,615 C420,630 400,625 400,600 Z" fill="#512b71"></path>
  <path d="M700,700 C710,690 730,695 725,715 C720,730 700,725 700,700 Z" fill="#512b71"></path>
  <path d="M150,300 C160,290 180,295 175,315 C170,330 150,325 150,300 Z" fill="#512b71"></path>
  <path d="M350,100 C360,90 380,95 375,115 C370,130 350,125 350,100 Z" fill="#512b71"></path>
  <path d="M650,250 C660,240 680,245 675,265 C670,280 650,275 650,250 Z" fill="#512b71"></path>
</svg>
