<svg xmlns="http://www.w3.org/2000/svg" width="600" height="600" viewBox="0 0 600 600">
  <!-- Transparent background -->
  <rect width="100%" height="100%" fill="transparent"></rect>

  <!-- Small purple leopard spots -->
  <g>
    <path fill="#8A2BE2" d="M50 50 q10 -8 20 0 q8 10 -4 18 q-14 6 -20 -4 q-4 -8 4 -14Z"></path>
    <path fill="#7B1FA2" d="M120 80 q8 -6 18 0 q6 8 -3 15 q-12 5 -18 -3 q-3 -6 3 -11Z"></path>
    <path fill="#9C27B0" d="M200 40 q12 -10 25 0 q8 10 -5 20 q-14 8 -25 -4 q-6 -8 5 -16Z"></path>
    <path fill="#6A0DAD" d="M300 70 q10 -8 22 0 q8 10 -4 18 q-14 6 -22 -4 q-4 -8 4 -14Z"></path>
    <path fill="#8E24AA" d="M400 50 q8 -6 18 0 q6 8 -3 15 q-12 5 -18 -3 q-3 -6 3 -11Z"></path>
    <path fill="#8A2BE2" d="M500 90 q10 -8 20 0 q8 10 -4 18 q-14 6 -20 -4 q-4 -8 4 -14Z"></path>
    <path fill="#7B1FA2" d="M150 150 q8 -6 18 0 q6 8 -3 15 q-12 5 -18 -3 q-3 -6 3 -11Z"></path>
    <path fill="#9C27B0" d="M250 200 q12 -10 25 0 q8 10 -5 20 q-14 8 -25 -4 q-6 -8 5 -16Z"></path>
    <path fill="#6A0DAD" d="M350 150 q10 -8 22 0 q8 10 -4 18 q-14 6 -22 -4 q-4 -8 4 -14Z"></path>
    <path fill="#8E24AA" d="M450 200 q8 -6 18 0 q6 8 -3 15 q-12 5 -18 -3 q-3 -6 3 -11Z"></path>
    <path fill="#8A2BE2" d="M100 300 q10 -8 20 0 q8 10 -4 18 q-14 6 -20 -4 q-4 -8 4 -14Z"></path>
    <path fill="#7B1FA2" d="M200 350 q8 -6 18 0 q6 8 -3 15 q-12 5 -18 -3 q-3 -6 3 -11Z"></path>
    <path fill="#9C27B0" d="M300 300 q12 -10 25 0 q8 10 -5 20 q-14 8 -25 -4 q-6 -8 5 -16Z"></path>
    <path fill="#6A0DAD" d="M400 350 q10 -8 22 0 q8 10 -4 18 q-14 6 -22 -4 q-4 -8 4 -14Z"></path>
    <path fill="#8E24AA" d="M500 300 q8 -6 18 0 q6 8 -3 15 q-12 5 -18 -3 q-3 -6 3 -11Z"></path>
  </g>
</svg>